<svg width="517" height="230" viewBox="0 0 517 230" fill="none" xmlns="http://www.w3.org/2000/svg">
<path d="M0.00976562 190.67H516.64" stroke="#232020" stroke-width="0.5"/>
<path d="M516.63 0H0V187.81H516.63V0Z" fill="#003473"/>
<path d="M516.63 186.71H0V194.6H516.63V186.71Z" fill="#00AEEF"/>
<path d="M454.97 154.91H59.8901V225.8H454.97V154.91Z" fill="#FFBF3C"/>
<path d="M55.9502 229.74V150.96H458.91V225.8V229.74H55.9502ZM63.8302 221.84H451.03V158.8H63.8302V221.84Z" fill="#00AEEF"/>
<path d="M150.33 57.69C159.85 57.69 167.54 49.96 167.54 40.45C167.54 30.94 159.85 23.22 150.33 23.22C140.79 23.22 133.1 30.94 133.1 40.45C133.1 49.96 140.8 57.69 150.33 57.69Z" fill="#EE3624"/>
<path d="M55.8301 126.93V23.95H81.1401V65.09H98.7101V23.95H124.04V126.93H98.7101V86.44H81.1401V126.93H55.8301Z" fill="white"/>
<path d="M278.29 101.46V110.31C278.29 113.62 280.3 116.41 285.34 116.62C293.85 116.95 292.98 113.09 293.42 108.05H316.14C317.29 123.53 306.07 128.79 286.2 128.97C269.78 129.11 255.4 124.07 255.4 110.31V87.4899C255.4 72.0599 268.49 67 286.2 66.88C302.18 66.8 316.99 71.2899 316.99 84.2799V101.47H278.29M294.14 90.1799V84.2799C294.14 82.1499 292.23 78.1699 286.34 78.1699C279.88 78.1699 278.29 82.03 278.29 86.19V90.1799H294.14Z" fill="white"/>
<path d="M350.34 101.46V110.31C350.34 113.62 352.36 116.41 357.42 116.62C365.88 116.95 365.02 113.09 365.46 108.05H388.19C389.34 123.53 378.11 128.79 358.26 128.97C341.85 129.11 327.45 124.07 327.45 110.31V87.4899C327.45 72.0599 340.56 67 358.26 66.88C374.21 66.8 389.06 71.2899 389.06 84.2799V101.47H350.34M366.18 90.1799V84.2799C366.18 82.1499 364.3 78.1699 358.4 78.1699C351.93 78.1699 350.35 82.03 350.35 86.19V90.1799H366.18Z" fill="white"/>
<path d="M422.22 68.5999V76.1199H422.52C424.66 71.4799 431.27 66.8599 438.47 66.8599C449.29 66.8599 458.9 71.2799 458.9 79.4399V127.04H436.02V85.7699C435.74 82.9799 434.31 80.6199 429.99 80.8399C425.97 80.9299 423.8 82.6499 423.8 85.7699V127.05H400.92V68.5999H422.22Z" fill="white"/>
<path d="M161.44 68.6001H138.57V126.93H161.44V68.6001Z" fill="white"/>
<path d="M174.8 48.8099L174.67 100.64C174.67 116.81 181.59 129.04 203.03 129.04C214 129.04 219.73 126.69 224.9 119.06H225.19L226.34 127.04H243.62V68.5999H209.22V84.6599H218.28V101.59C218.28 107.3 218 113.01 209.37 113.01C202.74 113.01 200.03 110.03 200.03 105.03V53.7699C200.03 47.9499 201.89 44.3699 209.81 44.4999H243.63V24.2199L202.21 24.1299C202.19 24.1299 176.17 24.2199 174.8 48.8099Z" fill="white"/>
<path d="M466.71 74.26C466.71 70.1 470.06 66.75 474.2 66.75C478.33 66.75 481.75 70.1 481.75 74.26C481.75 78.39 478.32 81.76 474.2 81.76C470.06 81.76 466.71 78.39 466.71 74.26ZM480.33 74.26C480.33 70.89 477.59 68.16 474.2 68.16C470.83 68.16 468.11 70.89 468.11 74.26C468.11 77.63 470.84 80.35 474.2 80.35C477.59 80.35 480.33 77.63 480.33 74.26ZM477.94 78.34H476.11L474.29 74.89H472.7V78.34H471.12V70.23H475.06C476.64 70.23 478.19 70.53 478.19 72.47C478.19 74.21 477.43 74.8 475.99 74.89L477.94 78.34ZM475.09 73.73C475.99 73.73 476.61 73.51 476.61 72.48C476.61 71.4 475.46 71.42 474.68 71.42H472.71V73.73H475.09Z" fill="white"/>
<path d="M395.21 54.48C396.78 54.48 398.05 53.21 398.05 51.61C398.05 50.02 396.78 48.75 395.21 48.75C393.62 48.75 392.32 50.02 392.32 51.61C392.31 53.21 393.61 54.48 395.21 54.48Z" fill="#FFBF3C"/>
<path d="M387.51 54.48C389.09 54.48 390.37 53.21 390.37 51.61C390.37 50.02 389.09 48.75 387.51 48.75C385.91 48.75 384.65 50.02 384.65 51.61C384.65 53.21 385.91 54.48 387.51 54.48Z" fill="#FFBF3C"/>
<path d="M337.19 54.48C338.75 54.48 340.05 53.21 340.05 51.61C340.05 50.02 338.75 48.75 337.19 48.75C335.61 48.75 334.31 50.02 334.31 51.61C334.3 53.21 335.6 54.48 337.19 54.48Z" fill="#FFBF3C"/>
<path d="M303.24 54.17C304.81 54.17 306.11 52.9 306.11 51.32C306.11 49.72 304.82 48.46 303.24 48.46C301.66 48.46 300.37 49.73 300.37 51.32C300.37 52.91 301.66 54.17 303.24 54.17Z" fill="#FFBF3C"/>
<path d="M295.55 54.17C297.14 54.17 298.39 52.9 298.39 51.32C298.39 49.72 297.14 48.46 295.55 48.46C293.98 48.46 292.69 49.73 292.69 51.32C292.69 52.91 293.98 54.17 295.55 54.17Z" fill="#FFBF3C"/>
<path d="M332.77 29.0001C340.93 29.0001 344.59 30.9301 344.59 39.7601H310.18V24.8701H305.35V39.7601H292.71L292.68 24.8701H287.89V39.7601L275.52 39.8201C263.32 39.8101 264.66 25.7501 264.66 25.7501H262.35L262.29 27.05C262.29 45.72 276.26 44.1201 276.26 44.1201L349.43 44.2401V39.67C349.43 30.32 344.24 24.5701 332.76 24.5701H318.94V28.9901H332.77V29.0001Z" fill="#FFBF3C"/>
<path d="M408.05 44.1001V1.07007H413.03V39.8801H428.64C427.53 38.3701 426.9 36.5501 426.9 34.6501C426.9 32.6601 427.53 30.8501 428.65 29.2801H425.6V24.86H442.8C454.26 24.86 457.73 30.6401 457.73 39.8801V44.1301L408.05 44.1001ZM436.79 29.3501C433.81 29.3501 431.42 31.64 431.42 34.58C431.42 37.45 433.86 39.8201 436.79 39.8201C439.72 39.8201 442.16 37.45 442.16 34.58C442.16 31.64 439.77 29.3501 436.79 29.3501ZM444.61 39.7601H452.73C453.98 29.3001 444.56 29.4001 444.56 29.4001C444.56 29.4001 448.47 34.5101 444.61 39.7601ZM400.64 24.6601V44.11H395.79V29.0701C387.61 29.0701 383.96 30.9301 383.96 39.7501L383.92 44.1301H371.41C371.41 44.1301 357.43 45.6301 357.43 27.0101L357.49 25.6901H359.8C359.8 25.6901 358.45 39.7601 370.67 39.7601H379.11C379.11 30.4201 384.28 24.67 395.78 24.67H400.64V24.6601Z" fill="#FFBF3C"/>
<path d="M277.33 33.3799C280.09 33.3799 282.3 31.1499 282.3 28.3799C282.3 25.6499 280.09 23.4199 277.33 23.4199C274.56 23.4199 272.36 25.6499 272.36 28.3799C272.37 31.1499 274.56 33.3799 277.33 33.3799Z" fill="#EE3624"/>
<path d="M82.6902 174.89H75.9102V199.93H82.6902V174.89Z" fill="#003473"/>
<path d="M88.75 199.93V182.22H94.2L94.13 184.74C94.63 183.76 95.28 183.05 96.07 182.63C96.86 182.2 97.9 181.98 99.19 181.98C101.3 181.98 102.75 182.43 103.56 183.33C104.37 184.23 104.77 185.93 104.77 188.42V199.92H99.15V189.67C99.15 188.38 99.01 187.55 98.71 187.17C98.41 186.79 97.72 186.6 96.63 186.6C95.77 186.6 95.17 186.81 94.85 187.23C94.52 187.65 94.36 188.58 94.36 190.01V199.93H88.75Z" fill="#003473"/>
<path d="M115.9 200.16C114.86 200.16 113.96 200.02 113.21 199.73C112.46 199.44 111.85 198.99 111.39 198.38C111.05 197.94 110.82 197.45 110.67 196.89C110.53 196.33 110.46 195.5 110.46 194.42V193.46V186.33H108.43V182.22H110.46V178.82H116.07V182.22H123.57V186.33H116.07V193.56C116.07 194.64 116.19 195.32 116.44 195.61C116.68 195.9 117.17 196.05 117.89 196.05C118.57 196.05 119.04 195.92 119.29 195.66C119.54 195.4 119.66 194.9 119.66 194.15V192.67H124.34V194.67C124.34 196.56 123.9 197.94 123.02 198.83C122.14 199.72 120.76 200.17 118.89 200.17H115.9V200.16Z" fill="#003473"/>
<path d="M144.29 194.51C144.16 196.52 143.54 197.96 142.46 198.84C141.37 199.72 139.66 200.16 137.33 200.16H134.96C132.37 200.16 130.55 199.62 129.5 198.55C128.45 197.47 127.92 195.59 127.92 192.9V189.25C127.92 186.57 128.44 184.69 129.5 183.61C130.55 182.53 132.37 181.99 134.96 181.99H137.33C139.92 181.99 141.74 182.53 142.79 183.61C143.84 184.69 144.37 186.57 144.37 189.25V192.04H133.59V194.21C133.59 195.01 133.76 195.56 134.09 195.89C134.42 196.22 135 196.38 135.83 196.38H136.55C137.33 196.38 137.87 196.24 138.18 195.97C138.49 195.7 138.68 195.21 138.75 194.51H144.29ZM133.58 189.08H138.84V188.46C138.84 187.29 138.69 186.5 138.38 186.12C138.07 185.73 137.47 185.54 136.57 185.54H135.85C134.98 185.54 134.38 185.73 134.06 186.1C133.74 186.48 133.58 187.21 133.58 188.3V189.08Z" fill="#003473"/>
<path d="M155.04 174.89H149.32V199.93H155.04V174.89Z" fill="#003473"/>
<path d="M166.38 174.89H160.66V199.93H166.38V174.89Z" fill="#003473"/>
<path d="M171.81 174.89H177.53V179.3H171.81V174.89ZM171.81 182.22H177.53V199.93H171.81V182.22Z" fill="#003473"/>
<path d="M198.59 182.22V198.79C198.59 200.61 198.47 201.94 198.21 202.8C197.95 203.66 197.51 204.39 196.9 204.99C196.37 205.51 195.64 205.92 194.7 206.24C193.76 206.55 192.78 206.71 191.77 206.71H189.85C187.68 206.71 186.04 206.32 184.93 205.55C183.81 204.78 183.26 203.64 183.26 202.14V201.15H188.68C188.68 201.72 188.8 202.12 189.05 202.35C189.3 202.58 189.74 202.69 190.36 202.69H191.18C191.97 202.69 192.5 202.49 192.79 202.08C193.07 201.68 193.22 200.87 193.22 199.66V197.07C192.82 197.92 192.21 198.54 191.42 198.93C190.63 199.32 189.53 199.51 188.16 199.51C186.21 199.51 184.77 198.97 183.85 197.89C182.93 196.81 182.47 195.12 182.47 192.8V189.25C182.47 186.75 182.94 184.92 183.89 183.74C184.84 182.57 186.32 181.98 188.34 181.98C189.46 181.98 190.42 182.19 191.21 182.6C192 183.01 192.59 183.62 192.98 184.41V182.21H198.59V182.22ZM188.18 189.74V192.47C188.18 193.85 188.34 194.74 188.65 195.15C188.97 195.56 189.53 195.77 190.35 195.77H191.04C191.86 195.77 192.42 195.56 192.74 195.14C193.05 194.73 193.21 193.84 193.21 192.47V189.74C193.21 188.36 193.05 187.46 192.74 187.05C192.42 186.64 191.86 186.43 191.04 186.43H190.35C189.53 186.43 188.97 186.64 188.65 187.05C188.34 187.46 188.18 188.36 188.18 189.74Z" fill="#003473"/>
<path d="M219.7 194.51C219.57 196.52 218.96 197.96 217.87 198.84C216.78 199.72 215.07 200.16 212.74 200.16H210.37C207.78 200.16 205.96 199.62 204.91 198.55C203.86 197.47 203.33 195.59 203.33 192.9V189.25C203.33 186.57 203.85 184.69 204.91 183.61C205.96 182.53 207.78 181.99 210.37 181.99H212.74C215.33 181.99 217.15 182.53 218.2 183.61C219.25 184.69 219.78 186.57 219.78 189.25V192.04H209V194.21C209 195.01 209.17 195.56 209.5 195.89C209.83 196.22 210.41 196.38 211.24 196.38H211.96C212.74 196.38 213.28 196.24 213.59 195.97C213.9 195.7 214.09 195.21 214.16 194.51H219.7ZM208.99 189.08H214.25V188.46C214.25 187.29 214.1 186.5 213.79 186.12C213.48 185.73 212.88 185.54 211.98 185.54H211.26C210.39 185.54 209.79 185.73 209.47 186.1C209.15 186.48 208.99 187.21 208.99 188.3V189.08Z" fill="#003473"/>
<path d="M224.66 199.93V182.22H230.11L230.04 184.74C230.55 183.76 231.2 183.05 231.99 182.63C232.78 182.2 233.82 181.98 235.11 181.98C237.22 181.98 238.67 182.43 239.48 183.33C240.29 184.23 240.69 185.93 240.69 188.42V199.92H235.07V189.67C235.07 188.38 234.92 187.55 234.63 187.17C234.33 186.79 233.64 186.6 232.55 186.6C231.69 186.6 231.09 186.81 230.77 187.23C230.44 187.65 230.28 188.58 230.28 190.01V199.93H224.66Z" fill="#003473"/>
<path d="M251.8 200.16C250.76 200.16 249.86 200.02 249.11 199.73C248.36 199.44 247.75 198.99 247.29 198.38C246.95 197.94 246.72 197.45 246.58 196.89C246.44 196.33 246.37 195.5 246.37 194.42V193.46V186.33H244.34V182.22H246.37V178.82H251.99V182.22H259.49V186.33H251.99V193.56C251.99 194.64 252.11 195.32 252.35 195.61C252.59 195.9 253.08 196.05 253.81 196.05C254.49 196.05 254.96 195.92 255.2 195.66C255.45 195.4 255.57 194.9 255.57 194.15V192.67H260.25V194.67C260.25 196.56 259.81 197.94 258.93 198.83C258.05 199.72 256.67 200.17 254.8 200.17H251.8V200.16Z" fill="#003473"/>
<path d="M277.73 199.93V174.89H289.47C292.78 174.89 295.14 175.54 296.57 176.84C297.99 178.13 298.7 180.27 298.7 183.24V184.89C298.7 187.87 297.99 190.01 296.56 191.31C295.13 192.61 292.77 193.26 289.47 193.26H284.44V199.94H277.73V199.93ZM284.44 187.67H289.12C290.22 187.67 290.95 187.47 291.31 187.08C291.67 186.68 291.85 185.89 291.85 184.71V183.26C291.85 182.26 291.62 181.56 291.17 181.14C290.72 180.72 289.95 180.51 288.85 180.51H284.45V187.67H284.44Z" fill="#003473"/>
<path d="M303.28 199.93V182.22H308.73L308.66 184.74C309.11 183.76 309.67 183.05 310.34 182.63C311.01 182.2 311.89 181.98 312.96 181.98C314.74 181.98 315.98 182.43 316.68 183.34C317.37 184.25 317.72 185.94 317.72 188.42V190H312.44V188.87C312.44 188.02 312.32 187.42 312.06 187.09C311.81 186.75 311.35 186.59 310.69 186.59C309.99 186.59 309.52 186.78 309.27 187.17C309.02 187.56 308.89 188.51 308.89 190V199.92H303.28V199.93Z" fill="#003473"/>
<path d="M320.67 189.25C320.67 186.57 321.19 184.69 322.24 183.61C323.29 182.53 325.11 181.99 327.7 181.99H330.07C332.66 181.99 334.48 182.53 335.53 183.61C336.58 184.69 337.1 186.57 337.1 189.25V192.9C337.1 195.59 336.58 197.48 335.53 198.55C334.48 199.63 332.66 200.16 330.07 200.16H327.7C325.11 200.16 323.29 199.63 322.24 198.55C321.19 197.47 320.67 195.59 320.67 192.9V189.25ZM326.42 189.67V192.5C326.42 194.04 326.56 194.99 326.85 195.37C327.14 195.74 327.7 195.93 328.56 195.93H329.25C330.09 195.93 330.65 195.74 330.93 195.38C331.21 195.01 331.35 194.05 331.35 192.5V189.67C331.35 188.11 331.21 187.15 330.93 186.78C330.65 186.41 330.09 186.23 329.25 186.23H328.56C327.71 186.23 327.14 186.42 326.85 186.8C326.57 187.18 326.42 188.14 326.42 189.67Z" fill="#003473"/>
<path d="M357.29 174.89V199.93H351.8L351.86 197.41C351.37 198.37 350.73 199.08 349.96 199.51C349.18 199.94 348.2 200.17 347 200.17C344.98 200.17 343.49 199.58 342.54 198.41C341.59 197.24 341.11 195.4 341.11 192.9V189.25C341.11 186.75 341.58 184.92 342.54 183.74C343.49 182.57 344.98 181.98 347 181.98C348.13 181.98 349.09 182.19 349.88 182.6C350.67 183.01 351.24 183.62 351.63 184.41V174.88H357.29V174.89ZM349.6 186.42H348.94C348.15 186.42 347.61 186.63 347.32 187.04C347.02 187.45 346.88 188.35 346.88 189.73V192.45C346.88 193.82 347.03 194.71 347.32 195.12C347.62 195.54 348.16 195.75 348.94 195.75H349.6C350.37 195.75 350.9 195.55 351.19 195.14C351.48 194.73 351.63 193.84 351.63 192.45V189.73C351.63 188.33 351.48 187.42 351.19 187.02C350.91 186.63 350.37 186.42 349.6 186.42Z" fill="#003473"/>
<path d="M379.12 182.22V199.93H373.67L373.74 197.41C373.25 198.39 372.6 199.1 371.82 199.52C371.04 199.95 370.01 200.17 368.74 200.17C366.6 200.17 365.13 199.73 364.31 198.83C363.5 197.94 363.09 196.25 363.09 193.76V182.22H368.7V192.5C368.7 193.79 368.85 194.62 369.15 195C369.46 195.38 370.14 195.57 371.22 195.57C372.09 195.57 372.7 195.36 373.01 194.95C373.33 194.54 373.49 193.62 373.49 192.18V182.22H379.12Z" fill="#003473"/>
<path d="M400.3 192.93C400.3 193.02 400.3 193.15 400.31 193.34C400.32 193.53 400.33 193.66 400.33 193.76C400.33 196.06 399.79 197.7 398.72 198.69C397.64 199.68 395.83 200.17 393.27 200.17H390.9C388.31 200.17 386.49 199.63 385.44 198.56C384.39 197.48 383.87 195.6 383.87 192.91V189.26C383.87 186.58 384.39 184.7 385.44 183.62C386.49 182.54 388.31 182 390.9 182H393.27C395.8 182 397.61 182.49 398.69 183.47C399.77 184.44 400.3 186.07 400.3 188.34V188.81H394.65V188.64C394.65 187.74 394.5 187.1 394.19 186.76C393.88 186.42 393.32 186.24 392.52 186.24H391.76C390.91 186.24 390.34 186.43 390.05 186.81C389.76 187.19 389.62 188.15 389.62 189.69V192.51C389.62 194.05 389.76 195 390.05 195.38C390.34 195.76 390.9 195.94 391.76 195.94H392.52C393.34 195.94 393.9 195.76 394.2 195.39C394.51 195.03 394.65 194.35 394.65 193.37V192.95H400.3V192.93Z" fill="#003473"/>
<path d="M410.73 200.16C409.69 200.16 408.79 200.02 408.04 199.73C407.29 199.44 406.69 198.99 406.22 198.38C405.88 197.94 405.65 197.45 405.51 196.89C405.37 196.33 405.3 195.5 405.3 194.42V193.46V186.33H403.27V182.22H405.3V178.82H410.92V182.22H418.42V186.33H410.92V193.56C410.92 194.64 411.04 195.32 411.28 195.61C411.52 195.9 412.01 196.05 412.74 196.05C413.42 196.05 413.89 195.92 414.13 195.66C414.38 195.4 414.5 194.9 414.5 194.15V192.67H419.18V194.67C419.18 196.56 418.74 197.94 417.86 198.83C416.98 199.72 415.6 200.17 413.73 200.17H410.73V200.16Z" fill="#003473"/>
<path d="M422.59 194.87H428.41C428.51 195.52 428.72 195.97 429.04 196.22C429.36 196.47 429.92 196.59 430.75 196.59H431.51C432.39 196.59 433 196.47 433.33 196.22C433.67 195.98 433.83 195.53 433.83 194.87C433.83 194.25 433.68 193.82 433.37 193.58C433.06 193.34 432.42 193.17 431.44 193.07L427.83 192.73C426.29 192.59 425.07 192.09 424.16 191.26C423.25 190.43 422.8 189.39 422.8 188.16V186.74C422.8 185.19 423.36 184 424.49 183.2C425.62 182.39 427.26 181.99 429.41 181.99H432.89C434.9 181.99 436.41 182.37 437.41 183.14C438.42 183.91 438.93 185.06 438.93 186.6V186.99H433.35C433.33 186.5 433.15 186.13 432.8 185.9C432.46 185.66 431.93 185.55 431.21 185.55H430.49C429.71 185.55 429.17 185.68 428.84 185.94C428.51 186.2 428.36 186.62 428.36 187.23C428.36 187.73 428.47 188.09 428.71 188.31C428.95 188.52 429.38 188.65 430 188.71L434 189.1C435.85 189.27 437.22 189.71 438.1 190.41C438.98 191.11 439.43 192.11 439.43 193.4V194.91C439.43 196.55 438.87 197.84 437.75 198.77C436.63 199.7 435.08 200.17 433.11 200.17H429.34C427.06 200.17 425.37 199.76 424.26 198.93C423.15 198.1 422.6 196.83 422.6 195.11V194.87H422.59Z" fill="#003473"/>
</svg>
